
<svg version="1.0" xmlns="http://www.w3.org/2000/svg"
 width="290.000000pt" height="174.000000pt" viewBox="0 0 290.000000 174.000000"
 preserveAspectRatio="xMidYMid meet">
<metadata>
Created by potrace 1.10, written by Peter Selinger 2001-2011
</metadata>
<g transform="translate(0.000000,174.000000) scale(0.100000,-0.100000)"
fill="#000000" stroke="none">
<path d="M2213 1132 l-83 -3 0 -74 0 -75 33 0 32 1 -30 13 c-29 12 -28 13 35
15 36 1 69 6 74 11 6 6 -14 8 -56 5 -106 -9 -98 31 10 46 l57 7 -68 -1 c-37
-1 -67 1 -67 6 0 4 42 8 93 9 l92 2 -95 6 c-79 5 -87 6 -45 10 28 3 73 1 100
-3 28 -4 73 -12 100 -16 l50 -8 -60 -3 -60 -3 45 -7 c25 -4 41 -8 35 -9 -5 -1
1 -7 15 -14 23 -10 21 -11 -30 -17 -49 -6 -51 -7 -15 -9 73 -3 77 -20 5 -23
l-65 -2 55 -3 c30 -2 60 -9 65 -15 7 -7 -3 -9 -32 -6 -55 5 -56 -7 -3 -16 46
-7 45 -26 -1 -26 -21 0 -28 4 -23 12 5 8 2 9 -12 3 -10 -4 -45 -7 -76 -6 -32
0 -58 -1 -58 -3 0 -2 46 -10 103 -17 98 -13 100 -14 52 -20 l-50 -6 55 -3 55
-4 -75 -6 -75 -6 65 -2 c43 -2 60 -5 51 -11 -11 -7 -9 -10 10 -13 l24 -5 -25
-11 c-21 -9 -22 -11 -6 -11 34 -1 9 -13 -46 -21 l-53 -8 63 -1 c74 -1 77 -20
4 -22 l-47 -1 40 -8 c22 -4 43 -6 48 -3 4 2 7 -1 7 -8 0 -7 -11 -9 -32 -5 -18
3 -77 6 -131 7 -88 1 -120 10 -103 27 4 3 39 9 79 12 l72 7 -63 2 c-41 0 -69
6 -78 16 -14 13 -13 15 5 15 12 0 21 5 21 10 0 6 -6 10 -14 10 -8 0 -16 7 -20
15 -4 11 3 15 27 16 l32 2 -35 7 c-19 4 -30 8 -25 9 9 1 -14 21 -25 21 -3 0
-5 -70 -5 -155 0 -85 3 -155 7 -155 4 0 5 -7 2 -15 -4 -8 -2 -15 2 -16 61 -5
124 -4 124 3 0 4 -17 8 -37 9 -53 1 -68 10 -69 41 l-1 28 136 -5 c75 -2 138
-4 141 -5 3 0 -1 -4 -9 -9 -8 -5 -28 -8 -45 -6 -17 1 -22 0 -11 -3 20 -4 20
-4 0 -13 -15 -6 -9 -8 23 -8 23 -1 42 -5 42 -11 0 -5 -6 -10 -14 -10 -8 0 -17
-4 -20 -8 -3 -5 7 -7 22 -4 l27 4 -3 271 c-2 149 -5 273 -7 275 -6 6 -135 8
-232 4z m57 -402 c-12 -8 -11 -10 8 -10 12 0 22 5 22 11 0 7 11 8 32 4 17 -4
49 -7 70 -7 21 1 38 -3 38 -9 0 -5 -20 -9 -44 -9 -25 0 -48 -5 -52 -11 -4 -7
7 -10 34 -8 23 2 44 0 48 -4 4 -4 -1 -7 -12 -8 -10 0 -65 -3 -120 -5 -85 -4
-104 -2 -118 11 -21 22 -20 35 3 35 11 0 23 5 26 10 3 6 23 10 43 10 28 0 33
-3 22 -10z"/>
<path d="M2228 993 c18 -2 45 -2 60 0 15 2 0 4 -33 4 -33 0 -45 -2 -27 -4z"/>
<path d="M2130 960 c0 -13 50 -13 70 0 11 7 4 10 -27 10 -24 0 -43 -4 -43 -10z"/>
<path d="M1770 928 c0 -5 69 -9 153 -9 l152 -2 -125 -9 c-69 -4 -137 -6 -152
-3 -24 4 -28 1 -28 -20 0 -19 5 -25 21 -25 11 0 18 4 15 9 -9 14 50 21 163 19
98 -1 101 -2 41 -8 l-65 -7 62 -1 c84 -3 93 -21 11 -24 -35 -1 -78 -1 -95 0
-18 1 -33 -2 -33 -6 0 -9 4 -9 105 -18 68 -6 71 -7 69 -33 0 -22 -6 -27 -32
-29 -31 -3 -45 -21 -19 -23 6 -1 17 -2 22 -4 6 -1 17 -3 25 -3 27 -3 -5 -21
-45 -25 l-40 -4 42 -1 c41 -2 72 -21 36 -23 -16 0 -16 -1 2 -9 15 -6 8 -9 -30
-10 -27 -1 -41 -4 -30 -7 11 -2 29 -6 41 -8 21 -5 30 -35 10 -35 -6 0 -4 -5 4
-10 11 -8 -1 -10 -42 -9 -32 2 -61 0 -65 -4 -7 -7 15 -10 80 -9 20 0 37 -4 37
-9 0 -5 -48 -10 -107 -10 -88 -1 -100 -3 -63 -10 25 -4 77 -5 115 -2 79 6 81
-8 2 -18 l-52 -6 55 -2 c97 -2 35 -17 -86 -20 -80 -1 -114 1 -109 8 3 6 3 17
-2 24 -10 15 -11 57 -2 57 3 0 5 11 4 25 -2 16 2 25 10 25 8 0 16 4 19 9 4 5
-4 7 -16 5 -13 -2 -17 -2 -11 2 10 4 9 11 -3 30 -15 22 -15 24 1 30 13 5 14 9
3 15 -10 7 -10 9 1 9 11 0 9 4 -5 15 -17 13 -17 14 -1 15 20 0 23 30 3 30 -8
0 -18 4 -21 10 -3 5 0 7 9 4 11 -4 13 0 9 15 -3 12 -11 21 -18 21 -16 0 -24
-40 -13 -69 4 -12 4 -20 0 -17 -5 3 -8 -58 -8 -135 1 -101 -3 -144 -11 -151
-9 -8 -13 -53 -13 -162 0 -83 -3 -161 -6 -174 -6 -23 -7 -23 -192 -22 -106 1
-180 5 -172 10 11 7 11 12 2 22 -7 9 -13 70 -15 164 l-3 149 -2 -172 -2 -173
-162 -3 c-90 -1 2 -3 205 -4 l367 -2 0 177 0 177 161 -4 160 -3 0 153 c0 85
-1 174 -1 199 -1 25 -2 64 -2 88 l-1 43 -158 -3 c-88 -2 -159 -6 -159 -10z
m278 -95 c-15 -2 -42 -2 -60 0 -18 2 -6 4 27 4 33 0 48 -2 33 -4z m11 -348
c-10 -10 -249 -15 -249 -5 0 6 49 10 127 10 69 0 124 -2 122 -5z"/>
<path d="M1410 830 c0 -6 32 -10 76 -10 46 0 73 -4 69 -10 -3 -5 -37 -8 -75
-7 -58 3 -70 1 -70 -12 -1 -9 -3 -33 -6 -54 l-6 -38 161 2 161 1 0 31 c0 18 3
49 6 70 l7 37 -162 0 c-101 0 -161 -4 -161 -10z m243 -46 c4 -8 15 -14 22 -14
16 0 19 -18 9 -44 -5 -14 -27 -16 -138 -16 -75 0 -125 4 -118 9 17 10 17 22 1
32 -10 6 -10 11 0 23 10 11 31 16 75 16 33 0 67 4 74 9 18 11 65 1 75 -15z"/>
<path d="M1570 728 c0 -4 23 -8 52 -8 28 0 48 3 45 6 -10 10 -97 12 -97 2z"/>
<path d="M1885 749 c-27 -3 -39 -7 -25 -8 14 0 49 -4 78 -7 44 -6 52 -4 52 10
0 9 -4 16 -10 16 -5 0 -10 -4 -10 -10 0 -12 -27 -14 -32 -2 -1 4 -25 4 -53 1z"/>
<path d="M1109 717 c5 -5 55 -9 112 -9 68 -1 90 -3 64 -7 -22 -4 -84 -6 -137
-5 l-98 1 -2 -56 c-1 -31 -2 -81 -2 -112 l-1 -57 65 -6 c84 -8 155 -8 215 0
46 7 47 7 41 38 -7 37 -8 79 -3 164 l3 63 -132 -3 c-73 -2 -129 -7 -125 -11z
m173 -44 c-40 -2 -103 -2 -140 0 -37 2 -4 3 73 3 77 0 107 -2 67 -3z m58 -24
c0 -5 -42 -9 -92 -10 -51 0 -100 -2 -108 -3 -8 -2 -31 2 -50 9 -30 10 -16 12
108 12 78 1 142 -3 142 -8z m-30 -29 l25 -2 -25 -8 c-23 -7 -23 -8 -4 -9 30
-1 39 -30 13 -39 -11 -4 -69 -8 -128 -7 -60 0 -104 -3 -98 -7 7 -4 66 -9 132
-10 104 -1 111 -2 55 -8 l-65 -7 67 -1 c54 -2 66 -5 62 -17 -5 -11 -24 -13
-102 -10 -66 3 -86 1 -62 -5 31 -7 29 -8 -23 -7 -44 0 -60 5 -67 17 -5 10 -6
20 -3 24 3 3 2 6 -4 6 -6 0 -13 9 -16 20 -5 18 0 20 61 21 37 0 90 0 117 -1
28 -1 47 1 44 5 -4 3 -54 6 -113 6 -89 -1 -104 2 -100 14 4 9 0 16 -7 17 -8 0
9 4 36 7 46 6 144 6 205 1z"/>
<path d="M1397 676 c-2 -5 0 -30 3 -56 3 -26 5 -70 4 -98 -4 -62 -5 -62 177
-62 l136 0 -2 68 c-1 37 -3 88 -4 115 -1 49 -10 57 -34 33 -8 -8 -29 -16 -48
-19 -31 -3 -31 -4 9 -5 57 -3 54 -20 -5 -24 -74 -5 -67 -28 9 -29 35 -1 53 -4
41 -6 -27 -5 -30 -20 -5 -26 9 -3 0 -5 -20 -6 -49 -1 -50 -21 -1 -21 72 0 26
-9 -70 -13 -54 -3 -101 -8 -105 -12 -4 -4 41 -5 101 -3 59 2 107 0 107 -4 0
-5 -62 -7 -137 -7 -76 1 -128 4 -115 6 22 4 23 5 5 18 -17 14 -17 14 2 15 18
1 17 2 -5 15 -22 13 -23 14 -5 15 20 1 20 1 0 10 -11 5 -14 9 -6 9 11 1 11 4
1 16 -10 13 -9 15 11 16 l24 1 -25 7 c-19 5 -22 9 -11 16 12 7 11 10 -5 16
-11 5 15 8 66 9 96 3 89 7 -17 12 -40 2 -74 -1 -76 -6z m293 -198 c0 -5 -57
-8 -126 -8 -69 0 -123 3 -121 8 3 4 60 7 126 7 67 0 121 -3 121 -7z"/>
<path d="M1942 678 c-16 -16 -15 -28 3 -28 8 0 14 5 13 12 -2 8 10 11 37 10
31 -1 36 0 20 7 -29 14 -59 13 -73 -1z"/>
<path d="M1518 623 c12 -2 22 -9 22 -14 0 -15 17 -10 24 6 4 12 -3 15 -32 14
-23 -1 -29 -3 -14 -6z"/>
<path d="M680 578 l0 -38 148 -2 c97 0 132 -3 102 -8 l-45 -7 43 -1 c24 -1 41
-6 38 -10 -6 -10 -266 -15 -266 -5 0 4 26 6 57 5 76 -5 66 3 -13 11 l-62 6 -4
-29 c-3 -22 0 -30 16 -34 31 -8 279 -7 292 2 7 4 12 37 13 77 l1 70 -160 0
-160 0 0 -37z m233 5 c-40 -2 -106 -2 -145 0 -40 1 -8 3 72 3 80 0 112 -2 73
-3z m37 -23 c-34 -11 -220 -11 -245 0 -12 5 38 8 125 8 81 -1 134 -4 120 -8z
m16 -78 c-7 -12 -248 -13 -266 -2 -10 6 33 10 128 10 79 0 141 -4 138 -8z"/>
<path d="M2280 579 c0 -5 10 -9 23 -9 13 0 28 -5 35 -12 9 -9 12 -9 12 0 0 7
9 12 20 12 11 0 20 4 20 10 0 6 -24 9 -55 9 -30 -1 -55 -6 -55 -10z"/>
<path d="M2132 540 c1 -16 5 -30 10 -30 4 0 7 -5 6 -12 -4 -17 -22 -37 -29
-32 -4 2 -6 -33 -5 -79 0 -45 0 -124 -2 -174 l-2 -93 -167 -2 c-95 -2 -13 -5
187 -8 265 -4 358 -2 368 7 18 18 15 25 -7 13 -11 -6 -89 -10 -180 -10 l-161
0 0 139 c0 76 -3 153 -6 170 l-7 32 95 -7 c128 -9 224 1 224 24 0 15 -15 17
-151 15 -97 -2 -143 0 -130 6 20 10 20 10 0 11 -20 1 -20 1 0 10 17 7 17 9 3
9 -26 1 -22 21 5 22 21 1 21 1 -3 9 -43 14 -49 11 -48 -20z m241 -67 c-34 -2
-93 -2 -130 0 -37 2 -9 3 62 3 72 0 102 -1 68 -3z"/>
<path d="M2390 560 c-28 -6 -30 -8 -10 -9 14 0 31 -10 38 -21 16 -25 32 -17
32 16 0 25 -3 26 -60 14z"/>
<path d="M1476 549 c3 -5 24 -9 46 -9 23 0 39 3 35 6 -10 10 -88 13 -81 3z"/>
<path d="M1868 523 c18 -2 45 -2 60 0 15 2 0 4 -33 4 -33 0 -45 -2 -27 -4z"/>
<path d="M515 508 c-66 -4 -135 -6 -154 -4 -41 6 -75 -19 -44 -32 10 -4 86 -7
169 -7 l151 0 -14 -32 c-7 -18 -13 -36 -12 -40 1 -5 1 -68 0 -140 l-1 -133
-167 -3 -168 -3 183 -2 182 -2 1 63 c0 34 4 115 7 180 4 64 3 117 -2 117 -4 0
-5 11 -2 25 4 14 3 24 -1 24 -5 -1 -62 -6 -128 -11z"/>
<path d="M2235 510 c44 -11 143 -11 150 -1 3 6 -32 9 -87 9 -63 0 -83 -3 -63
-8z"/>
<path d="M1000 461 c-6 -11 -10 -88 -10 -180 0 -118 -3 -161 -12 -164 -7 -3
-1 -6 15 -6 l27 -1 0 185 c0 102 -2 185 -5 185 -2 0 -9 -9 -15 -19z"/>
<path d="M370 280 l0 -100 55 0 c42 0 60 5 75 20 26 26 26 55 0 73 -18 13 -19
16 -5 27 8 7 15 21 15 31 0 33 -28 49 -86 49 l-54 0 0 -100z m95 45 c0 -14 -8
-21 -27 -23 -24 -3 -28 0 -28 23 0 23 4 26 28 23 19 -2 27 -9 27 -23z m-7 -64
c23 -14 10 -46 -21 -49 -24 -3 -27 0 -27 27 0 32 19 41 48 22z"/>
<path d="M740 294 c6 -97 18 -114 79 -114 64 0 81 28 81 129 0 68 -1 71 -24
71 -22 0 -23 -3 -19 -44 8 -65 -4 -114 -28 -121 -36 -12 -49 11 -49 91 0 70
-1 74 -22 74 -22 0 -23 -2 -18 -86z"/>
<path d="M1108 280 l-3 -100 48 0 c53 0 101 20 117 49 11 22 13 80 4 106 -10
25 -59 45 -113 45 l-50 0 -3 -100z m98 62 c15 -10 34 -47 34 -67 0 -23 -45
-65 -70 -65 -18 0 -20 6 -20 70 0 66 1 70 23 70 12 0 27 -4 33 -8z"/>
<path d="M1529 365 c-56 -30 -63 -125 -12 -165 17 -13 41 -20 69 -20 68 0 74
5 74 64 l0 51 -40 0 c-31 0 -40 -4 -40 -17 0 -12 8 -18 21 -18 29 0 22 -44 -8
-48 -31 -5 -63 31 -63 72 0 43 21 60 73 60 31 1 43 5 45 19 3 14 -4 17 -45 17
-26 -1 -60 -7 -74 -15z"/>
<path d="M1888 280 l-3 -100 68 0 c60 0 68 2 65 18 -3 13 -13 17 -43 17 -37 0
-40 2 -43 29 -3 28 -3 28 37 21 37 -6 41 -5 41 14 0 18 -6 21 -40 21 -36 0
-40 3 -40 24 0 22 3 24 40 19 36 -5 40 -3 40 16 0 19 -5 21 -59 21 l-60 0 -3
-100z"/>
<path d="M2250 359 c0 -18 5 -21 30 -17 l30 5 0 -84 c0 -79 1 -83 23 -83 21 0
22 3 19 80 l-4 80 31 0 c24 0 31 4 31 20 0 18 -7 20 -80 20 -75 0 -80 -1 -80
-21z"/>
<path d="M743 113 c43 -2 110 -2 150 0 40 1 5 3 -78 3 -82 0 -115 -2 -72 -3z"/>
</g>
</svg>
